<svg xmlns="http://www.w3.org/2000/svg" viewBox="0 0 118.4 52" class="undefined"><style type="text/css" class="undefined">  
	.st0{fill:#231F20;}
</style><path class="st0" d="M11.3 14.8H7.6v8.7H2.1V0.4H11c6 0 10.5 1.4 10.5 7.2 0 3.4-1.9 5.4-4.5 6.4l5.7 9.6h-6.4L11.3 14.8zM7.6 5v5.2h3.6c2.6 0 4.6-0.4 4.6-2.6 0-2.1-2-2.6-4.6-2.6H7.6z" class="undefined"/><path class="st0" d="M35.1 24c-7.1 0-12-4.8-12-12 0-7.2 4.9-12 12-12 7.1 0 12 4.8 12 12C47.1 19.2 42.2 24 35.1 24zM35.1 19.5c3.4 0 6.2-2.6 6.2-7.5s-2.8-7.5-6.2-7.5c-3.4 0-6.2 2.6-6.2 7.5S31.7 19.5 35.1 19.5z" class="undefined"/><path class="st0" d="M54.9 0.4v13.9c0 3.4 0.8 5.3 4.6 5.3s4.5-2.2 4.5-5.6V0.4h5.5v13.1c0 7.1-2.8 10.5-10 10.5 -6.9 0-10.1-2.7-10.1-10.3V0.4H54.9z" class="undefined"/><path class="st0" d="M94 7.6h-5.4c-0.5-1.6-2.1-3.1-5.1-3.1 -3.4 0-6 2.5-6 7.4 0 5 2.4 7.6 6.1 7.6 2.5 0 5.2-1 5.2-3.9v-0.4h-5.6v-4.5h11.1v12.9h-4.2L89.9 21c-1.5 2-3.8 3-7.1 3 -6.8 0-11-4.7-11-12.1C71.8 4.6 76.6 0 83.6 0 88.7 0 92.9 2.6 94 7.6z" class="undefined"/><path class="st0" d="M118.4 0.4v23.2h-5.5v-9.5h-9.5v9.5h-5.5V0.4h5.5v8.9h9.5V0.4H118.4z" class="undefined"/><path class="st0" d="M20.9 44.5l2.9-16.1h5.5l-5.2 23.2h-5.9l-3.5-16.4 -3.5 16.4H5.3L0 28.4h5.5l3.2 16 3.1-16h5.7L20.9 44.5z" class="undefined"/><path class="st0" d="M41.4 52c-7.1 0-12-4.8-12-12 0-7.2 4.9-12 12-12 7.1 0 12 4.8 12 12C53.5 47.2 48.5 52 41.4 52zM41.4 47.5c3.4 0 6.2-2.6 6.2-7.5s-2.8-7.5-6.2-7.5 -6.2 2.6-6.2 7.5S38 47.5 41.4 47.5z" class="undefined"/><path class="st0" d="M65.3 42.8h-3.7v8.7h-5.5V28.4H65c6 0 10.5 1.4 10.5 7.2 0 3.4-1.9 5.4-4.5 6.4l5.7 9.6h-6.4L65.3 42.8zM61.6 33v5.2h3.6c2.6 0 4.6-0.4 4.6-2.6 0-2.1-2-2.6-4.6-2.6H61.6z" class="undefined"/><path class="st0" d="M84.2 37.6l8.4-9.2h6.7l-8.6 9.2 9 14h-6.6l-6.3-9.8 -2.7 2.9v6.8h-5.5V28.4h5.5V37.6z" class="undefined"/></svg>